<?xml version="1.0" encoding="UTF-8" standalone="no"?>
<!DOCTYPE svg PUBLIC "-//W3C//DTD SVG 1.1//EN" "http://www.w3.org/Graphics/SVG/1.1/DTD/svg11.dtd">
<svg width="100%" height="100%" viewBox="0 0 282 99" version="1.1" xmlns="http://www.w3.org/2000/svg" xmlns:xlink="http://www.w3.org/1999/xlink" xml:space="preserve" xmlns:serif="http://www.serif.com/" style="fill-rule:evenodd;clip-rule:evenodd;stroke-linejoin:round;stroke-miterlimit:2;">
    <g id="Layer-1" serif:id="Layer 1" transform="matrix(4.16667,0,0,4.16667,0,0)">
        <g transform="matrix(1,0,0,1,0,1.1642)">
            <path d="M0,15.997L1.388,9.975L1.411,9.975L4.681,16.138C5.199,16.35 5.481,16.373 5.905,16.373C7.575,16.373 8.798,15.268 8.798,13.762C8.798,12.633 8.187,11.668 6.822,10.939L4.14,9.481C1.953,8.281 0.659,6.681 0.659,4.305C0.659,1.365 2.823,-0.941 6.657,-0.941C8.492,-0.941 10.163,-0.682 11.998,0.094L10.61,5.293L10.586,5.293L7.481,-0.282C7.01,-0.4 6.799,-0.423 6.328,-0.423C5.128,-0.423 4.093,0.447 4.093,1.741C4.093,2.776 4.681,3.694 6.422,4.729L9.504,6.587C11.48,7.763 12.609,9.198 12.609,11.339C12.609,14.586 9.88,16.938 5.952,16.938C3.952,16.938 1.906,16.632 0,15.997" style="fill:white;fill-rule:nonzero;"/>
        </g>
        <g transform="matrix(1,0,0,1,30.2748,6.4809)">
            <path d="M0,10.539C-1.929,10.539 -5.999,3.458 -5.999,1.153C-5.999,0.424 -5.646,0 -5.058,0C-2.988,0 0.964,7.363 0.964,9.339C0.964,10.139 0.635,10.539 0,10.539M-2.659,-0.847C-6.493,-0.847 -9.128,1.835 -9.128,5.199C-9.128,8.986 -6.023,11.386 -2.635,11.386C1.835,11.386 4.022,8.634 4.022,5.199C4.022,1.506 1.223,-0.847 -2.659,-0.847" style="fill:white;fill-rule:nonzero;"/>
        </g>
        <g transform="matrix(1,0,0,1,56.925,15.6554)">
            <path d="M0,-7.81C0,-8.68 0.353,-9.198 0.965,-9.198C1.976,-9.198 3.341,-7.457 3.341,-5.41C3.341,-4.211 3.082,-3.27 2.423,-2.423C1.012,-3.881 0,-5.858 0,-7.81M7.857,-0.165C7.646,-0.117 7.411,-0.094 7.175,-0.094C5.599,-0.094 3.905,-0.964 2.564,-2.282C5.387,-3.34 6.893,-5.058 6.893,-7.01C6.893,-8.727 5.364,-10.021 3.153,-10.021C-0.611,-10.021 -2.917,-7.175 -2.917,-3.74C-2.917,-0.094 -0.188,2.211 3.129,2.211C5.317,2.211 6.893,1.365 7.881,-0.141L7.857,-0.165Z" style="fill:white;fill-rule:nonzero;"/>
        </g>
        <g transform="matrix(1,0,0,1,41.7999,14.4908)">
            <path d="M0,-0.2C-0.705,-0.2 -1.599,-0.952 -2.964,-3.469C-3.905,-5.21 -4.375,-6.363 -4.375,-7.186C-4.375,-7.845 -3.952,-8.221 -3.458,-8.221C-2.728,-8.221 -1.905,-7.422 -0.517,-4.952C0.471,-3.187 0.894,-1.987 0.894,-1.235C0.894,-0.553 0.542,-0.2 0,-0.2M-3.364,6.223L-0.823,6.223C1.035,6.223 1.718,6.505 1.718,7.046C1.718,7.916 0.283,8.575 -1.529,8.575C-3.928,8.575 -5.81,7.564 -6.375,5.376C-5.739,5.917 -4.751,6.223 -3.364,6.223M5.293,-9.363L1.496,-8.033C1.496,-8.033 1.501,-8.066 1.483,-8.057C0.659,-8.574 -0.4,-8.857 -1.646,-8.857C-5.057,-8.857 -7.033,-6.786 -7.033,-4.199C-7.033,-2.67 -6.398,-1.446 -5.339,-0.647C-6.727,0.765 -7.268,1.894 -7.268,3.188C-7.268,4.035 -7.033,4.741 -6.516,5.258C-7.504,5.634 -8.068,6.27 -8.068,6.975C-8.068,8.457 -6.375,9.163 -2.917,9.163C1.412,9.163 4.329,7.422 4.329,4.741C4.329,2.694 2.847,1.847 0.118,1.847L-2.587,1.847C-4.634,1.847 -5.363,0.859 -5.128,-0.482C-4.21,0.13 -3.034,0.483 -1.717,0.483C1.53,0.483 3.482,-1.517 3.482,-4.175C3.482,-5.728 2.894,-7.022 1.788,-7.845C1.788,-7.845 3.649,-7.849 5.293,-7.179L5.293,-9.363Z" style="fill:white;fill-rule:nonzero;"/>
        </g>
        <g transform="matrix(1,0,0,1,20.6771,3.4936)">
            <path d="M0,12.209C-1.741,12.209 -2.376,11.197 -2.376,8.469L-2.376,2.987L0.374,2.987L0.852,2.611L-2.376,2.611L-2.376,-2.164L-8.892,2.964L-8.892,2.987L-7.081,2.987L-7.081,9.668C-7.081,12.727 -5.975,14.373 -3.176,14.373C-1.012,14.373 0.541,13.362 1.412,11.974L1.388,11.95C0.917,12.138 0.518,12.209 0,12.209" style="fill:white;fill-rule:nonzero;"/>
        </g>
        <g transform="matrix(1,0,0,1,54.2569,5.7752)">
            <path d="M0,11.48L-1.33,11.48L-1.33,-0.376L-6.995,1.608C-6.325,1.903 -5.704,2.315 -5.277,2.894L-6.035,2.894L-6.035,11.48L-7.211,11.48L-7.211,11.856L-0.478,11.856L0,11.48Z" style="fill:white;fill-rule:nonzero;"/>
        </g>
        <g transform="matrix(0,-1,-1,0,50.5745,0.0002)">
            <path d="M-2.611,-2.611C-1.169,-2.611 0,-1.442 0,0C0,1.442 -1.169,2.611 -2.611,2.611C-4.053,2.611 -5.222,1.442 -5.222,0C-5.222,-1.442 -4.053,-2.611 -2.611,-2.611" style="fill:white;fill-rule:nonzero;"/>
        </g>
        <g transform="matrix(0,-1,-1,0,66.238,15.3427)">
            <path d="M-1.262,-1.262C-0.565,-1.262 0,-0.697 0,0C0,0.697 -0.565,1.262 -1.262,1.262C-1.959,1.262 -2.524,0.697 -2.524,0C-2.524,-0.697 -1.959,-1.262 -1.262,-1.262" style="fill:white;fill-rule:nonzero;"/>
        </g>
    </g>
</svg>
