<?xml version="1.0" encoding="UTF-8" standalone="no"?>
<!DOCTYPE svg PUBLIC "-//W3C//DTD SVG 1.1//EN" "http://www.w3.org/Graphics/SVG/1.1/DTD/svg11.dtd">
<svg width="100%" height="100%" viewBox="0 0 718 718" version="1.1" xmlns="http://www.w3.org/2000/svg" xmlns:xlink="http://www.w3.org/1999/xlink" xml:space="preserve" xmlns:serif="http://www.serif.com/" style="fill-rule:evenodd;clip-rule:evenodd;stroke-linejoin:round;stroke-miterlimit:2;">
    <g id="Layer-1" serif:id="Layer 1" transform="matrix(4.16667,0,0,4.16667,0,0)">
        <g transform="matrix(1,0,0,1,80.3071,78.1918)">
            <path d="M0,-53.488L0,0.231C0,0.283 -0.044,0.327 -0.098,0.327L-18.778,0.327C-18.833,0.327 -18.875,0.285 -18.875,0.231L-18.875,-48.677C-18.875,-48.717 -18.85,-48.755 -18.814,-48.77C-12.875,-51.35 -6.583,-52.971 -0.111,-53.59L-0.102,-53.59C-0.069,-53.59 -0.046,-53.573 -0.034,-53.563C-0.021,-53.551 0,-53.526 0,-53.488M4.019,-58.644L4.018,-58.644C-5.592,-58.384 -14.806,-56.137 -23.364,-51.966C-23.6,-51.852 -23.752,-51.609 -23.752,-51.345L-23.678,4.479C-23.676,4.855 -23.369,5.161 -22.993,5.161L4.042,5.161C4.418,5.161 4.725,4.854 4.725,4.477L4.725,-57.955C4.725,-58.142 4.651,-58.317 4.516,-58.447C4.382,-58.578 4.199,-58.649 4.019,-58.644" style="fill:white;fill-rule:nonzero;"/>
        </g>
        <g transform="matrix(1,0,0,1,92.374,24.4805)">
            <path d="M0,53.942L0,0.253C0,0.215 0.021,0.19 0.035,0.178C0.046,0.169 0.069,0.151 0.102,0.151C0.105,0.151 0.108,0.152 0.112,0.152C6.572,0.807 12.865,2.472 18.816,5.103C18.852,5.118 18.875,5.156 18.875,5.195L18.875,53.942C18.875,53.995 18.831,54.039 18.777,54.039L0.098,54.039C0.043,54.039 0,53.996 0,53.942M-4.117,58.872L22.994,58.872C23.37,58.872 23.676,58.566 23.676,58.188L23.676,2.51C23.676,2.249 23.525,2.007 23.293,1.892C14.731,-2.33 5.519,-4.623 -4.09,-4.924C-4.273,-4.93 -4.455,-4.861 -4.59,-4.73C-4.725,-4.601 -4.801,-4.421 -4.801,-4.236L-4.801,58.188C-4.801,58.566 -4.495,58.872 -4.117,58.872" style="fill:white;fill-rule:nonzero;"/>
        </g>
        <g transform="matrix(1,0,0,1,111.249,140.032)">
            <path d="M0,-37.766L0,2.897C0,2.936 -0.024,2.973 -0.06,2.99C-6.012,5.621 -12.305,7.286 -18.764,7.94C-18.799,7.947 -18.827,7.925 -18.84,7.915C-18.854,7.903 -18.875,7.878 -18.875,7.838L-18.875,-32.859C-18.875,-32.903 -18.845,-32.941 -18.802,-32.953L-0.121,-37.86C-0.112,-37.862 -0.104,-37.863 -0.096,-37.863C-0.069,-37.863 -0.049,-37.851 -0.037,-37.842C-0.023,-37.831 0,-37.807 0,-37.766M4.118,-50.781L0.685,-50.781C0.307,-50.781 0,-50.474 0,-50.097L0,-42.931C0,-42.887 -0.03,-42.848 -0.072,-42.836L-14.463,-39.056C-14.512,-39.045 -14.561,-39.07 -14.578,-39.119L-18.506,-50.323C-18.603,-50.597 -18.861,-50.781 -19.15,-50.781L-22.789,-50.781C-23.011,-50.781 -23.22,-50.671 -23.349,-50.491C-23.476,-50.31 -23.508,-50.078 -23.435,-49.87L-19.243,-37.91C-19.23,-37.874 -19.241,-37.845 -19.249,-37.831C-19.256,-37.817 -19.273,-37.792 -19.309,-37.784L-23.165,-36.77C-23.465,-36.691 -23.676,-36.419 -23.676,-36.109L-23.676,12.327C-23.676,12.514 -23.601,12.69 -23.465,12.822C-23.335,12.947 -23.166,13.015 -22.987,13.015L-22.965,13.015C-13.353,12.714 -4.141,10.422 4.415,6.201C4.649,6.087 4.802,5.843 4.802,5.582L4.802,-50.097C4.802,-50.474 4.495,-50.781 4.118,-50.781" style="fill:white;fill-rule:nonzero;"/>
        </g>
        <g transform="matrix(1,0,0,1,152.667,143.987)">
            <path d="M0,-54.519C-0.13,-54.656 -0.312,-54.735 -0.499,-54.735L-14.367,-54.735C-14.722,-54.735 -15.019,-54.457 -15.044,-54.101C-15.379,-49.279 -16.384,-44.542 -18.031,-40.026C-18.055,-39.959 -18.105,-39.953 -18.144,-39.96C-18.225,-39.974 -18.225,-40.036 -18.225,-40.056L-18.225,-54.735L-33.392,-54.735C-33.769,-54.735 -34.075,-54.428 -34.075,-54.051L-34.075,-0.47C-34.075,-0.223 -33.947,-0 -33.731,0.124C-33.624,0.186 -33.506,0.216 -33.388,0.216C-33.271,0.216 -33.153,0.186 -33.047,0.125C-31.795,-0.598 -30.662,-1.298 -29.581,-2.015C-29.389,-2.144 -29.273,-2.359 -29.273,-2.589L-29.273,-49.804C-29.273,-49.859 -29.231,-49.901 -29.178,-49.901L-23.123,-49.901C-23.068,-49.901 -23.025,-49.859 -23.025,-49.804L-23.025,-24.222C-23.025,-23.922 -22.841,-23.666 -22.555,-23.571C-22.271,-23.475 -21.971,-23.565 -21.79,-23.802C-16.019,-31.406 -12.269,-40.402 -10.946,-49.821C-10.939,-49.867 -10.902,-49.901 -10.857,-49.901L-5.126,-49.901C-5.087,-49.901 -5.062,-49.878 -5.05,-49.866C-5.038,-49.853 -5.02,-49.825 -5.024,-49.787C-6.751,-36.214 -13.073,-23.402 -22.825,-13.711C-22.952,-13.587 -23.025,-13.413 -23.025,-13.232L-23.025,-8.516C-23.025,-8.241 -22.867,-7.999 -22.614,-7.886C-22.361,-7.777 -22.08,-7.82 -21.879,-8.002C-8.611,-19.927 -0.773,-36.266 0.19,-54.008C0.2,-54.196 0.131,-54.382 0,-54.519" style="fill:white;fill-rule:nonzero;"/>
        </g>
        <g transform="matrix(1,0,0,1,20.1519,28.2027)">
            <path d="M0,55.15L13.868,55.15C14.224,55.15 14.521,54.872 14.544,54.516C14.879,49.676 15.884,44.932 17.533,40.417C17.557,40.351 17.607,40.348 17.646,40.352C17.726,40.366 17.726,40.427 17.726,40.447L17.726,55.15L33.179,55.15C33.555,55.15 33.862,54.843 33.862,54.466L33.862,0.719C33.862,0.472 33.733,0.25 33.518,0.125C33.303,0.002 33.049,0 32.835,0.123C31.64,0.807 30.474,1.523 29.369,2.25C29.176,2.378 29.061,2.592 29.061,2.824L29.061,50.22C29.061,50.273 29.018,50.317 28.964,50.317L22.624,50.317C22.57,50.317 22.527,50.273 22.527,50.22L22.527,24.691C22.527,24.391 22.342,24.135 22.055,24.039C21.772,23.944 21.471,24.034 21.292,24.271C15.518,31.891 11.77,40.87 10.454,50.235C10.447,50.283 10.41,50.317 10.363,50.317L4.627,50.317C4.588,50.317 4.562,50.295 4.551,50.282C4.54,50.269 4.521,50.241 4.526,50.202C6.254,36.624 12.576,23.812 22.328,14.125C22.457,13.997 22.527,13.827 22.527,13.647L22.527,8.932C22.527,8.657 22.37,8.416 22.117,8.304C21.863,8.191 21.583,8.236 21.38,8.418C8.112,20.343 0.275,36.682 -0.689,54.425C-0.698,54.612 -0.629,54.798 -0.499,54.935C-0.369,55.072 -0.187,55.15 0,55.15" style="fill:white;fill-rule:nonzero;"/>
        </g>
        <g transform="matrix(1,0,0,1,84.3481,153.058)">
            <path d="M0,-63.805L-3.358,-63.805C-3.735,-63.805 -4.042,-63.498 -4.042,-63.122L-4.042,-47.826C-4.042,-47.784 -4.072,-47.744 -4.114,-47.733L-16.035,-44.601C-16.082,-44.592 -16.133,-44.615 -16.149,-44.662L-22.699,-63.345C-22.793,-63.62 -23.053,-63.805 -23.344,-63.805L-26.95,-63.805C-27.171,-63.805 -27.38,-63.697 -27.508,-63.517C-27.636,-63.337 -27.669,-63.106 -27.596,-62.897L-20.813,-43.452C-20.802,-43.419 -20.812,-43.391 -20.82,-43.377C-20.827,-43.363 -20.845,-43.338 -20.88,-43.327L-27.284,-41.646C-27.583,-41.567 -27.792,-41.294 -27.792,-40.985L-27.792,-7.299C-27.792,-7.037 -27.641,-6.794 -27.407,-6.68C-26.199,-6.09 -24.9,-5.518 -23.319,-4.877L-22.916,-4.713L-22.916,-37.754C-22.916,-37.798 -22.886,-37.837 -22.844,-37.848L-4.163,-42.756C-4.122,-42.766 -4.093,-42.75 -4.079,-42.74C-4.065,-42.728 -4.042,-42.704 -4.042,-42.662L-4.043,-0.231L-3.773,-0.208C-2.487,-0.103 -1.226,-0.033 -0.023,0L-0.004,0C0.175,0 0.344,-0.07 0.474,-0.196C0.609,-0.326 0.683,-0.502 0.683,-0.689L0.683,-63.122C0.683,-63.498 0.376,-63.805 0,-63.805" style="fill:white;fill-rule:nonzero;"/>
        </g>
        <g transform="matrix(1,0,0,1,53.3296,140.155)">
            <path d="M0,-50.902L-18.626,-50.902C-18.693,-52.165 -18.72,-53.28 -18.707,-54.302C-18.703,-54.518 -18.785,-54.723 -18.937,-54.877C-19.088,-55.031 -19.291,-55.116 -19.508,-55.116L-22.456,-55.116C-22.899,-55.116 -23.263,-54.757 -23.269,-54.315C-23.28,-53.276 -23.255,-52.157 -23.193,-50.902L-33.179,-50.902C-33.366,-50.902 -33.548,-50.823 -33.678,-50.686C-33.808,-50.548 -33.876,-50.362 -33.866,-50.174C-33.229,-38.436 -29.479,-27.039 -23.022,-17.215C-22.858,-16.967 -22.556,-16.852 -22.271,-16.929L-4.239,-21.682C-4.201,-21.693 -4.169,-21.677 -4.154,-21.665C-4.141,-21.654 -4.117,-21.631 -4.117,-21.59L-4.117,-4.282C-4.117,-4.227 -4.153,-4.202 -4.175,-4.191C-4.196,-4.181 -4.238,-4.169 -4.278,-4.198C-7.57,-6.668 -10.705,-9.581 -13.597,-12.857C-13.769,-13.05 -14.03,-13.129 -14.278,-13.063L-18.034,-12.076C-18.263,-12.016 -18.442,-11.844 -18.514,-11.619C-18.586,-11.392 -18.538,-11.15 -18.387,-10.969C-13.301,-4.903 -7.231,0.175 -0.345,4.122C-0.239,4.184 -0.122,4.214 -0.005,4.214C0.113,4.214 0.232,4.183 0.34,4.12C0.556,3.995 0.685,3.774 0.685,3.525L0.685,-27.055C0.685,-27.268 0.588,-27.465 0.419,-27.596C0.25,-27.726 0.033,-27.771 -0.173,-27.715L-20.494,-22.377C-20.542,-22.366 -20.588,-22.384 -20.61,-22.423C-24.881,-29.669 -27.586,-37.586 -28.651,-45.956C-28.656,-45.993 -28.638,-46.021 -28.626,-46.034C-28.615,-46.047 -28.589,-46.069 -28.55,-46.069L-4.213,-46.069C-4.16,-46.069 -4.117,-46.025 -4.117,-45.972L-4.117,-37.64C-4.117,-37.596 -4.146,-37.558 -4.189,-37.547L-14.987,-34.711C-15.037,-34.697 -15.089,-34.723 -15.108,-34.77C-16.253,-37.644 -17.148,-40.694 -17.767,-43.835C-17.829,-44.153 -18.109,-44.384 -18.433,-44.384L-21.636,-44.384C-21.84,-44.384 -22.032,-44.294 -22.164,-44.135C-22.296,-43.977 -22.35,-43.771 -22.313,-43.569C-21.411,-38.703 -19.869,-33.986 -17.732,-29.55C-17.589,-29.253 -17.253,-29.097 -16.936,-29.184L0.176,-33.729C0.476,-33.807 0.685,-34.079 0.685,-34.389L0.685,-50.218C0.685,-50.595 0.378,-50.902 0,-50.902" style="fill:white;fill-rule:nonzero;"/>
        </g>
        <g transform="matrix(1,0,0,1,119.275,32.5877)">
            <path d="M0,50.764L18.338,50.764C18.404,52.022 18.43,53.137 18.418,54.163C18.414,54.381 18.496,54.586 18.648,54.741C18.8,54.894 19.003,54.979 19.219,54.979L22.172,54.979C22.614,54.979 22.979,54.619 22.984,54.178C22.995,53.14 22.971,52.02 22.909,50.764L32.893,50.764C33.081,50.764 33.264,50.685 33.395,50.548C33.523,50.411 33.593,50.225 33.582,50.039C32.357,27.507 19.934,7.272 0.35,-4.09C0.134,-4.215 -0.121,-4.215 -0.337,-4.091C-0.554,-3.966 -0.683,-3.743 -0.683,-3.495L-0.683,0.493C-0.683,0.73 -0.563,0.946 -0.363,1.069C15.539,10.985 26.011,27.294 28.366,45.817C28.371,45.856 28.353,45.883 28.341,45.897C28.33,45.91 28.304,45.932 28.265,45.932L4.213,45.932C4.161,45.932 4.118,45.888 4.118,45.836L4.118,18.278C4.118,18.219 4.159,18.194 4.184,18.184C4.212,18.171 4.254,18.167 4.291,18.205C11.044,25.318 15.604,34.191 17.478,43.862C17.539,44.18 17.819,44.411 18.143,44.411L21.387,44.411C21.592,44.411 21.784,44.321 21.916,44.162C22.047,44.005 22.101,43.8 22.064,43.599C19.521,29.643 11.833,17.262 0.415,8.736C0.208,8.581 -0.066,8.558 -0.3,8.674C-0.536,8.792 -0.683,9.029 -0.683,9.291L-0.683,50.081C-0.683,50.458 -0.377,50.764 0,50.764" style="fill:white;fill-rule:nonzero;"/>
        </g>
        <g transform="matrix(1,0,0,1,6.3623,83.4136)">
            <path d="M0,5.59C0.133,5.59 0.259,5.538 0.355,5.443L2.625,3.172C2.82,2.977 2.82,2.658 2.625,2.462L0.355,0.193C0.166,0.003 -0.162,0 -0.356,0.192L-2.625,2.462C-2.82,2.658 -2.82,2.977 -2.625,3.172L-0.354,5.444C-0.259,5.538 -0.133,5.59 0,5.59" style="fill:white;fill-rule:nonzero;"/>
        </g>
        <g transform="matrix(1,0,0,1,112.772,159.826)">
            <path d="M0,3.954L-1.358,4.413L-2.091,2.242L-0.733,1.783L0,3.954ZM0.35,-2.552C0.273,-2.776 0.035,-2.898 -0.19,-2.821L-0.192,-2.821L-1.669,-2.321C-1.775,-2.285 -1.864,-2.207 -1.914,-2.108C-1.965,-2.008 -1.974,-1.889 -1.938,-1.779L-1.385,-0.147L-4.017,0.743C-4.557,0.925 -4.873,1.559 -4.692,2.103L-3.332,6.125C-3.183,6.559 -2.774,6.852 -2.314,6.852C-2.193,6.852 -2.077,6.833 -1.972,6.796L2.543,5.268C2.767,5.192 2.886,4.95 2.812,4.726L0.35,-2.552Z" style="fill:white;fill-rule:nonzero;"/>
        </g>
        <g transform="matrix(1,0,0,1,28.7461,142.941)">
            <path d="M0,-0.746L0.017,-0.757L1.131,0.362L-0.221,1.71L-1.338,0.591L0,-0.746ZM4.667,-2.557C4.5,-2.725 4.229,-2.724 4.062,-2.558L2.512,-1.015L2.045,-1.482L3.057,-3.789C3.127,-3.95 3.093,-4.136 2.968,-4.263L1.931,-5.305C1.831,-5.404 1.686,-5.444 1.549,-5.422C1.41,-5.395 1.293,-5.302 1.237,-5.175L0.353,-3.168C0.174,-3.3 -0.056,-3.373 -0.298,-3.374L-0.3,-3.374C-0.594,-3.374 -0.87,-3.266 -1.058,-3.077L-3.732,-0.414C-3.935,-0.213 -4.047,0.058 -4.047,0.344C-4.047,0.63 -3.936,0.9 -3.734,1.102L-0.28,4.571C-0.199,4.652 -0.091,4.698 0.023,4.698C0.136,4.698 0.246,4.651 0.325,4.571L5.766,-0.848C5.847,-0.929 5.892,-1.035 5.892,-1.15C5.892,-1.264 5.846,-1.374 5.767,-1.452L4.667,-2.557Z" style="fill:white;fill-rule:nonzero;"/>
        </g>
        <g transform="matrix(1,0,0,1,126.341,154.551)">
            <path d="M0,3.089L-1.372,3.857L-1.427,3.873L-3.552,0.035L-2.137,-0.753L-2.127,-0.757L0,3.089ZM-0.48,-2.767C-0.631,-3.041 -0.866,-3.234 -1.144,-3.313C-1.416,-3.39 -1.72,-3.351 -1.987,-3.2L-5.699,-1.146C-5.979,-0.989 -6.169,-0.762 -6.249,-0.488C-6.326,-0.213 -6.285,0.081 -6.131,0.361L-3.07,5.89C-2.864,6.265 -2.522,6.479 -2.134,6.479C-1.943,6.479 -1.751,6.426 -1.562,6.323L2.147,4.269C2.719,3.952 2.896,3.332 2.58,2.76L-0.48,-2.767Z" style="fill:white;fill-rule:nonzero;"/>
        </g>
        <g transform="matrix(1,0,0,1,7.1709,106.627)">
            <path d="M0,1.846L5.842,0.305C6.069,0.243 6.206,0.009 6.146,-0.217L5.748,-1.727C5.72,-1.836 5.647,-1.93 5.55,-1.988C5.456,-2.044 5.342,-2.062 5.225,-2.032L-0.616,-0.49L-0.986,-1.886C-1.044,-2.107 -1.269,-2.243 -1.508,-2.19L-2.687,-1.88C-2.914,-1.818 -3.05,-1.583 -2.99,-1.357L-1.638,3.77C-1.588,3.957 -1.419,4.089 -1.224,4.089C-1.191,4.089 -1.156,4.085 -1.115,4.075L0.066,3.764C0.176,3.734 0.268,3.663 0.324,3.566C0.381,3.468 0.397,3.349 0.368,3.242L0,1.846Z" style="fill:white;fill-rule:nonzero;"/>
        </g>
        <g transform="matrix(1,0,0,1,15.1646,118.204)">
            <path d="M0,2.252L-0.875,0.323L0.139,-0.141L0.151,-0.144L1.311,2.404C1.359,2.511 1.449,2.593 1.557,2.632C1.665,2.671 1.78,2.663 1.876,2.617L2.986,2.112C3.088,2.066 3.17,1.979 3.209,1.873C3.25,1.767 3.246,1.65 3.199,1.546L1.503,-2.181C1.375,-2.464 1.155,-2.675 0.885,-2.775C0.616,-2.875 0.313,-2.858 0.033,-2.731L-2.783,-1.449C-3.075,-1.316 -3.282,-1.105 -3.382,-0.838C-3.483,-0.57 -3.467,-0.273 -3.334,0.02L-2.464,1.938L-3.48,2.404L-3.524,2.415L-4.631,-0.019C-4.678,-0.122 -4.763,-0.202 -4.868,-0.24C-4.971,-0.283 -5.092,-0.277 -5.197,-0.23L-6.296,0.27C-6.398,0.316 -6.48,0.403 -6.52,0.509C-6.56,0.615 -6.556,0.731 -6.509,0.836L-4.859,4.461C-4.667,4.884 -4.313,5.127 -3.887,5.127C-3.723,5.127 -3.555,5.088 -3.388,5.013L-0.551,3.721C-0.26,3.59 -0.052,3.378 0.048,3.109C0.149,2.842 0.133,2.545 0,2.252" style="fill:white;fill-rule:nonzero;"/>
        </g>
        <g transform="matrix(1,0,0,1,25.2271,131.584)">
            <path d="M0,0.006C0.051,-0.277 -0.012,-0.575 -0.173,-0.808L-2.541,-4.254C-2.701,-4.489 -2.945,-4.647 -3.228,-4.699C-3.515,-4.75 -3.804,-4.69 -4.043,-4.525L-9.835,-0.546C-10.029,-0.412 -10.079,-0.145 -9.946,0.049L-9.063,1.335C-8.999,1.428 -8.901,1.491 -8.788,1.515C-8.674,1.534 -8.563,1.509 -8.468,1.446L-3.516,-1.961L-3.489,-1.973L-2.635,-0.731L-7.613,2.689C-7.706,2.751 -7.771,2.852 -7.792,2.963C-7.813,3.075 -7.789,3.19 -7.724,3.283L-6.839,4.569C-6.76,4.686 -6.628,4.756 -6.487,4.756C-6.401,4.756 -6.318,4.73 -6.245,4.681L-0.453,0.701C-0.215,0.538 -0.054,0.291 0,0.006" style="fill:white;fill-rule:nonzero;"/>
        </g>
        <g transform="matrix(1,0,0,1,41.9941,156.489)">
            <path d="M0,-8.901C-0.193,-9.036 -0.46,-8.989 -0.596,-8.797L-4.071,-3.86L-5.251,-4.689C-5.444,-4.823 -5.711,-4.777 -5.848,-4.586L-6.548,-3.59C-6.613,-3.498 -6.639,-3.381 -6.619,-3.271C-6.6,-3.159 -6.538,-3.061 -6.444,-2.995L-2.11,0.055C-2.037,0.107 -1.952,0.135 -1.863,0.135C-1.724,0.135 -1.593,0.066 -1.514,-0.047L-0.812,-1.043C-0.747,-1.135 -0.721,-1.252 -0.741,-1.362C-0.76,-1.475 -0.822,-1.572 -0.916,-1.638L-2.095,-2.469L1.38,-7.406C1.445,-7.499 1.471,-7.615 1.451,-7.726C1.432,-7.839 1.37,-7.936 1.276,-8.003L0,-8.901Z" style="fill:white;fill-rule:nonzero;"/>
        </g>
        <g transform="matrix(1,0,0,1,63.2188,164.74)">
            <path d="M0,-6.448L-4.555,-8.046C-4.663,-8.081 -4.777,-8.074 -4.879,-8.026C-4.981,-7.976 -5.059,-7.889 -5.096,-7.782L-5.498,-6.633C-5.577,-6.411 -5.459,-6.166 -5.236,-6.088L-2.55,-5.146L-2.947,-4.011L-5.223,-4.811C-5.45,-4.878 -5.686,-4.765 -5.763,-4.547L-6.159,-3.42C-6.196,-3.313 -6.189,-3.194 -6.141,-3.094C-6.093,-2.993 -6.004,-2.913 -5.896,-2.874L-3.625,-2.079L-4.006,-0.99L-6.699,-1.935C-6.802,-1.968 -6.916,-1.962 -7.022,-1.914C-7.125,-1.864 -7.202,-1.778 -7.239,-1.671L-7.637,-0.532C-7.715,-0.31 -7.598,-0.065 -7.375,0.013L-2.821,1.611C-2.775,1.626 -2.729,1.633 -2.683,1.633C-2.617,1.633 -2.554,1.619 -2.496,1.59C-2.394,1.54 -2.316,1.454 -2.279,1.347L0.262,-5.903C0.34,-6.126 0.222,-6.37 0,-6.448" style="fill:white;fill-rule:nonzero;"/>
        </g>
        <g transform="matrix(1,0,0,1,77.9429,169.194)">
            <path d="M0,-7.799L-1.372,-7.998C-1.562,-8.027 -1.745,-7.927 -1.824,-7.75L-3.482,-4.056L-3.987,-8.065C-4.011,-8.256 -4.161,-8.407 -4.35,-8.434L-5.752,-8.637C-5.952,-8.667 -6.153,-8.548 -6.221,-8.353L-8.759,-0.957C-8.801,-0.836 -8.787,-0.705 -8.72,-0.595C-8.654,-0.487 -8.543,-0.413 -8.417,-0.395L-7.106,-0.203C-6.9,-0.165 -6.7,-0.301 -6.637,-0.501L-5.442,-4.382L-5.191,-0.267C-5.178,-0.066 -5.024,0.101 -4.826,0.129L-3.551,0.315C-3.35,0.346 -3.157,0.234 -3.086,0.041L-1.604,-3.946L-1.629,0.221C-1.631,0.434 -1.474,0.617 -1.264,0.647L0.208,0.862C0.23,0.866 0.25,0.868 0.272,0.868C0.378,0.868 0.48,0.828 0.559,0.758C0.653,0.673 0.705,0.55 0.699,0.421L0.366,-7.395C0.356,-7.601 0.203,-7.77 0,-7.799" style="fill:white;fill-rule:nonzero;"/>
        </g>
        <g transform="matrix(1,0,0,1,99.5645,166.412)">
            <path d="M0,-2.587L-2.093,-2.274L-2.261,-3.386L0.505,-3.805C0.617,-3.821 0.721,-3.884 0.787,-3.975C0.854,-4.067 0.881,-4.179 0.864,-4.292L0.682,-5.496C0.664,-5.612 0.601,-5.718 0.508,-5.784C0.416,-5.85 0.305,-5.876 0.195,-5.855L-3.852,-5.242C-4.495,-5.145 -4.878,-4.625 -4.782,-3.979L-4.319,-0.924C-4.273,-0.612 -4.122,-0.35 -3.896,-0.182C-3.667,-0.01 -3.366,0.058 -3.057,0.009L-0.975,-0.307L-0.781,0.843L-3.446,1.247C-3.56,1.264 -3.659,1.323 -3.728,1.416C-3.795,1.508 -3.823,1.621 -3.807,1.733L-3.626,2.924C-3.595,3.135 -3.417,3.289 -3.203,3.289C-3.184,3.289 -3.161,3.286 -3.139,3.283L0.8,2.688C1.115,2.641 1.372,2.493 1.542,2.264C1.712,2.033 1.775,1.743 1.729,1.425L1.263,-1.656C1.164,-2.31 0.656,-2.685 0,-2.587" style="fill:white;fill-rule:nonzero;"/>
        </g>
        <g transform="matrix(1,0,0,1,136.689,152.975)">
            <path d="M0,-10.09C-0.072,-10.176 -0.176,-10.232 -0.283,-10.242C-0.389,-10.262 -0.51,-10.226 -0.604,-10.149L-1.809,-9.157C-1.99,-9.007 -2.017,-8.737 -1.867,-8.555L-0.059,-6.355L-1.393,-5.257L-3.201,-7.459C-3.273,-7.546 -3.377,-7.601 -3.485,-7.612C-3.6,-7.626 -3.716,-7.593 -3.805,-7.518L-5.011,-6.526C-5.192,-6.375 -5.219,-6.106 -5.07,-5.923L-0.189,0.017C-0.107,0.116 0.013,0.172 0.141,0.172C0.24,0.172 0.336,0.137 0.411,0.075L1.618,-0.916C1.707,-0.989 1.762,-1.092 1.773,-1.206C1.784,-1.319 1.75,-1.431 1.678,-1.518L-0.054,-3.626L1.282,-4.724L3.016,-2.614C3.166,-2.437 3.438,-2.412 3.615,-2.558L4.82,-3.548C4.909,-3.62 4.964,-3.722 4.977,-3.839C4.986,-3.951 4.953,-4.063 4.882,-4.151L0,-10.09Z" style="fill:white;fill-rule:nonzero;"/>
        </g>
        <g transform="matrix(1,0,0,1,146.452,142.187)">
            <path d="M0,-8.821C-0.457,-9.203 -1.142,-9.147 -1.53,-8.693L-4.205,-5.528C-4.605,-5.054 -4.558,-4.376 -4.093,-3.979L-2.675,-2.781C-2.586,-2.709 -2.471,-2.672 -2.363,-2.684C-2.249,-2.694 -2.146,-2.747 -2.074,-2.835L-1.067,-4.023C-0.993,-4.109 -0.957,-4.223 -0.967,-4.336C-0.977,-4.451 -1.029,-4.553 -1.117,-4.628L-1.777,-5.189L-0.802,-6.336L2.563,-3.502L1.584,-2.344L0.932,-2.893C0.843,-2.968 0.733,-3.005 0.618,-2.994C0.505,-2.985 0.401,-2.93 0.329,-2.843L-0.679,-1.652C-0.752,-1.566 -0.788,-1.452 -0.778,-1.342C-0.769,-1.226 -0.716,-1.123 -0.628,-1.05L0.78,0.14C0.966,0.296 1.206,0.382 1.456,0.382C1.788,0.382 2.101,0.238 2.315,-0.014L4.989,-3.178C5.179,-3.401 5.269,-3.681 5.245,-3.97C5.222,-4.259 5.09,-4.517 4.872,-4.702L0,-8.821Z" style="fill:white;fill-rule:nonzero;"/>
        </g>
        <g transform="matrix(1,0,0,1,164.038,119.514)">
            <path d="M0,-3.063L-7.057,-6.113L-7.059,-6.113C-7.162,-6.157 -7.278,-6.159 -7.385,-6.118C-7.49,-6.076 -7.575,-5.994 -7.62,-5.889L-8.171,-4.613C-8.264,-4.397 -8.164,-4.144 -7.948,-4.05L-4.576,-2.593L-8.947,-2.243C-9.104,-2.232 -9.242,-2.133 -9.307,-1.988L-9.928,-0.549C-9.973,-0.446 -9.974,-0.33 -9.932,-0.223C-9.89,-0.117 -9.81,-0.033 -9.705,0.012L-2.647,3.061C-2.594,3.084 -2.536,3.096 -2.479,3.096C-2.425,3.096 -2.371,3.085 -2.321,3.067C-2.215,3.025 -2.132,2.944 -2.086,2.838L-1.535,1.563C-1.442,1.346 -1.542,1.094 -1.757,1L-5.152,-0.466L-0.729,-0.863C-0.572,-0.875 -0.437,-0.974 -0.375,-1.118L0.223,-2.501C0.269,-2.606 0.27,-2.722 0.228,-2.827C0.187,-2.932 0.104,-3.017 0,-3.063" style="fill:white;fill-rule:nonzero;"/>
        </g>
        <g transform="matrix(1,0,0,1,167.252,106.316)">
            <path d="M0,-0.411L-0.001,-0.411L-7.444,-2.313C-7.562,-2.342 -7.676,-2.325 -7.768,-2.267C-7.864,-2.211 -7.936,-2.115 -7.964,-2.004L-8.346,-0.505C-8.404,-0.277 -8.267,-0.044 -8.037,0.014L-0.593,1.917C-0.558,1.926 -0.523,1.931 -0.49,1.931C-0.295,1.931 -0.125,1.798 -0.076,1.608L0.308,0.109C0.336,0 0.319,-0.118 0.262,-0.216C0.206,-0.311 0.109,-0.384 0,-0.411" style="fill:white;fill-rule:nonzero;"/>
        </g>
        <g transform="matrix(1,0,0,1,168.584,86.5422)">
            <path d="M0,-0.667L-2.269,-2.935C-2.458,-3.125 -2.79,-3.128 -2.981,-2.937L-5.251,-0.667C-5.446,-0.471 -5.446,-0.152 -5.251,0.043L-2.983,2.311C-2.89,2.408 -2.763,2.461 -2.626,2.461C-2.493,2.461 -2.363,2.408 -2.271,2.314L-0.001,0.044C0.193,-0.151 0.194,-0.47 0,-0.667" style="fill:white;fill-rule:nonzero;"/>
        </g>
        <g transform="matrix(1,0,0,1,124.487,15.8599)">
            <path d="M0,3.005L2.209,-0.778L3.631,0.034L1.41,3.829L0,3.005ZM-2.169,4.135L1.497,6.276C1.688,6.387 1.887,6.443 2.086,6.443C2.463,6.443 2.8,6.236 3.01,5.876L6.197,0.419C6.358,0.142 6.404,-0.15 6.333,-0.427C6.259,-0.703 6.073,-0.934 5.798,-1.095L2.136,-3.234C1.869,-3.391 1.568,-3.438 1.292,-3.365C1.014,-3.292 0.776,-3.104 0.62,-2.836L-2.566,2.621C-2.893,3.185 -2.729,3.807 -2.169,4.135" style="fill:white;fill-rule:nonzero;"/>
        </g>
        <g transform="matrix(1,0,0,1,116.861,13.6473)">
            <path d="M0,-3.34L-1.606,0.75L-3.129,0.151L-1.527,-3.937L-0.002,-3.344L0,-3.34ZM2.604,-4.215C2.489,-4.475 2.271,-4.675 1.972,-4.793L-1.975,-6.344C-2.575,-6.581 -3.176,-6.316 -3.412,-5.719L-5.725,0.164C-5.961,0.771 -5.703,1.362 -5.098,1.601L-1.149,3.152C-0.999,3.211 -0.85,3.241 -0.703,3.241C-0.261,3.241 0.109,2.973 0.286,2.527L2.598,-3.357C2.717,-3.657 2.718,-3.953 2.604,-4.215" style="fill:white;fill-rule:nonzero;"/>
        </g>
        <g transform="matrix(1,0,0,1,70.7495,9.9576)">
            <path d="M0,-4.161L1.417,-4.419L1.831,-2.164L0.415,-1.903L0,-4.161ZM-0.86,2.574C-0.835,2.574 -0.811,2.572 -0.784,2.568L0.753,2.286C0.865,2.265 0.961,2.202 1.025,2.11C1.09,2.017 1.114,1.904 1.094,1.791L0.781,0.094L3.515,-0.409C4.075,-0.512 4.477,-1.094 4.375,-1.655L3.608,-5.824C3.558,-6.102 3.398,-6.345 3.161,-6.51C2.923,-6.674 2.641,-6.735 2.362,-6.685L-2.323,-5.824C-2.553,-5.781 -2.707,-5.559 -2.665,-5.33L-1.278,2.227C-1.24,2.428 -1.064,2.574 -0.86,2.574" style="fill:white;fill-rule:nonzero;"/>
        </g>
        <g transform="matrix(1,0,0,1,10.8169,54.3642)">
            <path d="M0,-0.242L0.646,-1.727L4.685,0.026L4.028,1.525L0,-0.242ZM-1.849,1.581L3.941,4.118C4.103,4.188 4.266,4.224 4.426,4.224C4.851,4.224 5.215,3.971 5.399,3.548L7.101,-0.336C7.23,-0.629 7.244,-0.926 7.14,-1.193C7.035,-1.458 6.825,-1.667 6.532,-1.795L0.743,-4.331C0.458,-4.456 0.155,-4.466 -0.111,-4.363C-0.377,-4.259 -0.591,-4.045 -0.715,-3.762L-2.417,0.122C-2.546,0.416 -2.559,0.712 -2.456,0.978C-2.352,1.243 -2.142,1.452 -1.849,1.581" style="fill:white;fill-rule:nonzero;"/>
        </g>
        <g transform="matrix(1,0,0,1,154.708,43.7894)">
            <path d="M0,1.2L-0.834,-0.151L0.799,-1.159L1.634,0.193L0.034,1.189L0,1.2ZM0.518,3.702L3.733,1.717C4.234,1.406 4.392,0.744 4.082,0.241L1.505,-3.931C1.379,-4.13 1.116,-4.19 0.921,-4.069L-5.625,-0.027C-5.722,0.033 -5.79,0.13 -5.813,0.236C-5.84,0.344 -5.821,0.46 -5.763,0.557L-4.939,1.887C-4.815,2.086 -4.551,2.149 -4.355,2.025L-2.49,0.873L-2.141,1.44L-3.654,3.459C-3.758,3.6 -3.767,3.787 -3.675,3.937L-2.901,5.19C-2.826,5.308 -2.699,5.383 -2.54,5.39C-2.407,5.39 -2.28,5.327 -2.201,5.221L-0.876,3.465C-0.73,3.637 -0.521,3.763 -0.283,3.819C-0.001,3.886 0.292,3.842 0.518,3.702" style="fill:white;fill-rule:nonzero;"/>
        </g>
        <g transform="matrix(1,0,0,1,162.044,68.7932)">
            <path d="M0,-4.441C-0.146,-4.195 -0.182,-3.902 -0.104,-3.591L0.415,-1.536L-0.685,-1.262L-1.37,-3.974C-1.396,-4.083 -1.467,-4.178 -1.564,-4.236C-1.665,-4.297 -1.781,-4.316 -1.887,-4.283L-3.066,-3.983C-3.177,-3.956 -3.27,-3.887 -3.327,-3.79C-3.386,-3.691 -3.401,-3.578 -3.374,-3.468L-2.371,0.499C-2.241,1.018 -1.844,1.34 -1.337,1.34C-1.234,1.34 -1.131,1.327 -1.026,1.301L1.97,0.543C2.281,0.465 2.522,0.294 2.669,0.048C2.816,-0.198 2.852,-0.492 2.772,-0.802L2.259,-2.844L3.393,-3.128L4.049,-0.535C4.105,-0.311 4.331,-0.17 4.564,-0.228L5.732,-0.523C5.843,-0.55 5.936,-0.62 5.993,-0.717C6.052,-0.815 6.067,-0.929 6.04,-1.039L5.064,-4.9C4.986,-5.207 4.811,-5.455 4.567,-5.599C4.321,-5.745 4.026,-5.781 3.72,-5.701L0.699,-4.936C0.389,-4.858 0.147,-4.687 0,-4.441" style="fill:white;fill-rule:nonzero;"/>
        </g>
        <g transform="matrix(1,0,0,1,154.594,56.848)">
            <path d="M0,-2.78C-0.043,-2.675 -0.042,-2.559 0.002,-2.455L0.608,-1.016C0.654,-0.912 0.737,-0.831 0.842,-0.789C0.948,-0.746 1.064,-0.747 1.166,-0.791L2.771,-1.47L3.746,-1.319L1.743,1.068C1.641,1.191 1.615,1.358 1.677,1.507L2.329,3.052C2.386,3.188 2.514,3.286 2.663,3.308C2.682,3.31 2.701,3.312 2.721,3.312C2.85,3.312 2.969,3.255 3.05,3.155L6.033,-0.516L9.656,0.17C9.803,0.201 9.967,0.142 10.065,0.019C10.164,-0.104 10.187,-0.269 10.126,-0.413L9.472,-1.964C9.413,-2.099 9.291,-2.195 9.146,-2.218L5.794,-2.749L8.241,-3.783C8.345,-3.826 8.427,-3.911 8.468,-4.013C8.511,-4.117 8.511,-4.233 8.467,-4.339L7.859,-5.776C7.768,-5.992 7.523,-6.092 7.302,-6.002L0.229,-3.012C0.124,-2.967 0.043,-2.885 0,-2.78" style="fill:white;fill-rule:nonzero;"/>
        </g>
        <g transform="matrix(1,0,0,1,140.86,31.8729)">
            <path d="M0,2.366L0.915,3.407C1.041,3.549 1.247,3.59 1.416,3.51L5.08,1.763L2.866,5.151C2.763,5.309 2.776,5.52 2.903,5.663L3.84,6.729C3.921,6.821 4.037,6.873 4.158,6.873C4.234,6.873 4.31,6.853 4.375,6.814L11.099,2.822C11.207,2.757 11.28,2.648 11.3,2.523C11.32,2.399 11.283,2.272 11.199,2.177L10.325,1.184C10.186,1.027 9.957,0.993 9.778,1.107L6.345,3.299L8.822,-0.01C8.942,-0.17 8.934,-0.395 8.801,-0.545L7.95,-1.513C7.817,-1.665 7.595,-1.702 7.424,-1.603L3.7,0.482L6.429,-2.689C6.566,-2.849 6.564,-3.089 6.425,-3.245L5.441,-4.363C5.342,-4.475 5.214,-4.499 5.109,-4.507C4.983,-4.503 4.866,-4.444 4.788,-4.343L-0.017,1.824C-0.142,1.985 -0.135,2.213 0,2.366" style="fill:white;fill-rule:nonzero;"/>
        </g>
        <g transform="matrix(1,0,0,1,98.6699,4.312)">
            <path d="M0,7.489L1.351,7.769C1.535,7.817 1.728,7.726 1.818,7.551L3.7,3.951L3.966,7.993C3.978,8.183 4.116,8.343 4.303,8.382L5.691,8.669C5.719,8.675 5.749,8.678 5.78,8.678C5.954,8.678 6.108,8.575 6.174,8.415L9.149,1.18C9.197,1.062 9.191,0.931 9.132,0.82C9.071,0.707 8.967,0.629 8.843,0.603L7.552,0.335C7.342,0.29 7.136,0.406 7.063,0.601L5.632,4.42L5.626,0.282C5.626,0.082 5.483,-0.093 5.287,-0.134L4.028,-0.394C3.83,-0.44 3.63,-0.337 3.551,-0.151L1.826,3.756L2.102,-0.419C2.116,-0.63 1.971,-0.821 1.765,-0.864L0.301,-1.166C0.18,-1.189 0.051,-1.159 -0.049,-1.081C-0.147,-1.001 -0.206,-0.882 -0.207,-0.757L-0.339,7.066C-0.342,7.269 -0.199,7.447 0,7.489" style="fill:white;fill-rule:nonzero;"/>
        </g>
        <g transform="matrix(1,0,0,1,84.9727,7.6991)">
            <path d="M0,-2.194C-1.343,-2.194 -1.895,-2.161 -2.123,-2.109L-2.183,-3.289L0.514,-3.385C0.627,-3.389 0.732,-3.438 0.81,-3.521C0.887,-3.604 0.927,-3.712 0.923,-3.825L0.881,-5.03C0.876,-5.143 0.829,-5.248 0.745,-5.327C0.659,-5.407 0.539,-5.449 0.441,-5.44L-3.539,-5.298C-3.858,-5.286 -4.131,-5.17 -4.325,-4.961C-4.521,-4.751 -4.617,-4.471 -4.606,-4.152L-4.495,-1.038C-4.473,-0.4 -4.019,0.03 -3.365,0.03C-3.365,0.03 -3.158,0.023 -2.873,0.013C-2.289,-0.008 -1.373,-0.04 -1.231,-0.045L-1.191,1.088L-3.99,1.187C-4.104,1.191 -4.208,1.24 -4.286,1.323C-4.364,1.406 -4.404,1.514 -4.4,1.627L-4.357,2.845C-4.353,2.958 -4.305,3.063 -4.221,3.141C-4.142,3.215 -4.04,3.255 -3.918,3.255L-3.917,3.255L0.172,3.11C0.493,3.098 0.765,2.982 0.959,2.772C1.154,2.564 1.25,2.284 1.239,1.963L1.13,-1.127C1.106,-1.765 0.652,-2.194 0,-2.194" style="fill:white;fill-rule:nonzero;"/>
        </g>
        <g transform="matrix(1,0,0,1,47.6914,10.8912)">
            <path d="M0,9.88C0.052,9.979 0.144,10.054 0.25,10.088C0.291,10.1 0.333,10.106 0.375,10.106C0.445,10.106 0.514,10.088 0.575,10.056L1.952,9.323C2.052,9.269 2.125,9.18 2.159,9.071C2.192,8.963 2.18,8.848 2.127,8.749L0.789,6.23L2.32,5.416L3.659,7.934C3.713,8.034 3.802,8.108 3.91,8.141C4.018,8.173 4.132,8.162 4.233,8.11L5.611,7.377C5.712,7.323 5.785,7.234 5.818,7.125C5.851,7.017 5.84,6.902 5.787,6.803L2.177,0.015C2.123,-0.087 2.032,-0.161 1.921,-0.193C1.814,-0.226 1.7,-0.213 1.604,-0.161L0.225,0.572C0.125,0.626 0.051,0.715 0.018,0.824C-0.015,0.932 -0.004,1.047 0.049,1.146L1.331,3.556L-0.2,4.371L-1.482,1.961C-1.536,1.86 -1.627,1.786 -1.737,1.753C-1.844,1.721 -1.959,1.733 -2.057,1.786L-3.434,2.519C-3.535,2.572 -3.608,2.661 -3.642,2.77C-3.674,2.879 -3.663,2.993 -3.61,3.093L0,9.88Z" style="fill:white;fill-rule:nonzero;"/>
        </g>
        <g transform="matrix(1,0,0,1,37.8877,17.9078)">
            <path d="M0,8.899C0.209,9.177 0.522,9.337 0.86,9.337C1.095,9.337 1.322,9.26 1.516,9.115L4.83,6.629C5.072,6.449 5.229,6.188 5.271,5.894C5.312,5.612 5.239,5.33 5.067,5.1L3.954,3.616C3.886,3.525 3.786,3.466 3.673,3.45C3.562,3.437 3.449,3.463 3.359,3.53L2.11,4.466C2.02,4.534 1.96,4.634 1.945,4.746C1.929,4.858 1.958,4.97 2.025,5.061L2.548,5.758L1.336,6.664L-1.304,3.138L-0.118,2.24L-0.096,2.231L0.417,2.916C0.486,3.007 0.586,3.066 0.698,3.082C0.813,3.1 0.922,3.069 1.013,3.001L2.261,2.066C2.448,1.924 2.486,1.658 2.346,1.471L1.241,-0.004C1.08,-0.219 0.819,-0.364 0.524,-0.401C0.228,-0.438 -0.066,-0.364 -0.288,-0.198L-3.604,2.289C-3.834,2.462 -3.984,2.716 -4.026,3.004C-4.066,3.289 -3.996,3.57 -3.827,3.795L0,8.899Z" style="fill:white;fill-rule:nonzero;"/>
        </g>
        <g transform="matrix(1,0,0,1,23.4302,32.779)">
            <path d="M0,4.164C0.237,4.365 0.523,4.46 0.81,4.439C1.093,4.415 1.36,4.271 1.561,4.034L2.928,2.416L3.793,3.148L1.986,5.289C1.913,5.375 1.877,5.485 1.887,5.598C1.896,5.711 1.949,5.813 2.036,5.887L2.966,6.673C3.043,6.738 3.14,6.773 3.24,6.773C3.365,6.773 3.483,6.718 3.564,6.622L6.206,3.499C6.414,3.254 6.511,2.975 6.486,2.688C6.462,2.404 6.32,2.144 6.076,1.938L3.714,-0.06C3.223,-0.473 2.567,-0.416 2.154,0.072L0.789,1.677L-0.098,0.922L1.63,-1.122C1.781,-1.3 1.758,-1.568 1.58,-1.72L0.66,-2.499C0.572,-2.573 0.463,-2.609 0.35,-2.598C0.239,-2.589 0.134,-2.535 0.061,-2.449L-2.509,0.591C-2.717,0.835 -2.814,1.116 -2.79,1.4C-2.767,1.685 -2.625,1.945 -2.379,2.152L0,4.164Z" style="fill:white;fill-rule:nonzero;"/>
        </g>
        <g transform="matrix(1,0,0,1,13.7529,41.7363)">
            <path d="M0,2.715L1.032,3.363C1.129,3.423 1.243,3.444 1.354,3.418C1.464,3.392 1.558,3.325 1.617,3.23L2.387,2.006L7.502,5.22C7.569,5.264 7.648,5.286 7.729,5.286C7.875,5.286 8.01,5.212 8.088,5.088L8.919,3.768C8.979,3.672 8.999,3.557 8.974,3.447C8.948,3.336 8.882,3.242 8.786,3.182L3.669,-0.035L4.439,-1.258C4.5,-1.354 4.52,-1.468 4.495,-1.58C4.469,-1.69 4.403,-1.784 4.306,-1.845L3.275,-2.493C3.181,-2.553 3.067,-2.571 2.956,-2.548C2.844,-2.522 2.75,-2.456 2.689,-2.36L-0.133,2.128C-0.194,2.224 -0.213,2.338 -0.188,2.449C-0.163,2.56 -0.097,2.653 0,2.715" style="fill:white;fill-rule:nonzero;"/>
        </g>
        <g transform="matrix(1,0,0,1,5.1182,63.8315)">
            <path d="M0,4.696L6.179,6.3C6.271,6.325 6.364,6.338 6.459,6.338C6.957,6.338 7.376,6.007 7.504,5.514L8.544,1.513C8.697,0.925 8.356,0.345 7.768,0.191L5.608,-0.37L5.673,-0.619C5.702,-0.728 5.686,-0.845 5.629,-0.943C5.572,-1.039 5.478,-1.11 5.37,-1.138L4.226,-1.436C4.118,-1.466 4,-1.45 3.903,-1.392C3.807,-1.336 3.735,-1.242 3.706,-1.133L2.908,1.942C2.849,2.167 2.986,2.4 3.212,2.46L4.358,2.758C4.59,2.817 4.814,2.681 4.875,2.453L5.048,1.787L6.241,2.097L5.817,3.726C5.816,3.726 5.813,3.727 5.811,3.728L1.553,2.641L2.445,-0.791C2.473,-0.901 2.457,-1.015 2.399,-1.112C2.344,-1.208 2.25,-1.28 2.14,-1.309L0.974,-1.612C0.865,-1.642 0.75,-1.625 0.652,-1.568C0.554,-1.511 0.483,-1.418 0.455,-1.307L-0.761,3.366C-0.909,3.939 -0.561,4.549 0,4.696" style="fill:white;fill-rule:nonzero;"/>
        </g>
        <g transform="matrix(1,0,0,1,134.36,22.5494)">
            <path d="M0,3.005L2.783,-0.42L3.661,0.292C3.764,0.376 3.826,0.484 3.839,0.6C3.851,0.713 3.812,0.831 3.728,0.935L1.522,3.651C1.35,3.862 1.091,3.891 0.879,3.717L0,3.005ZM0.381,5.978C0.7,6.237 1.106,6.38 1.522,6.38C2.078,6.38 2.597,6.133 2.944,5.703L6.027,1.907C6.331,1.535 6.472,1.063 6.422,0.578C6.372,0.091 6.138,-0.345 5.764,-0.649L2.537,-3.268C2.453,-3.339 2.334,-3.375 2.225,-3.363C2.112,-3.351 2.011,-3.296 1.938,-3.208L-2.908,2.761C-2.979,2.85 -3.012,2.961 -3,3.073C-2.987,3.186 -2.932,3.287 -2.845,3.359L0.381,5.978Z" style="fill:white;fill-rule:nonzero;"/>
        </g>
        <g transform="matrix(1,0,0,1,60.0425,8.5388)">
            <path d="M0,4.726L-0.004,4.727L-1.471,0.575L0.083,0.038L0.104,0.024L1.541,4.19L0,4.726ZM-1.971,6.419C-1.808,6.893 -1.433,7.177 -0.966,7.177C-0.833,7.177 -0.698,7.154 -0.562,7.107L3.449,5.722C4.066,5.509 4.348,4.93 4.136,4.313L2.072,-1.665C1.971,-1.958 1.772,-2.189 1.513,-2.314C1.256,-2.438 0.955,-2.451 0.664,-2.351L-3.35,-0.966C-3.965,-0.753 -4.247,-0.173 -4.035,0.443L-1.971,6.419Z" style="fill:white;fill-rule:nonzero;"/>
        </g>
    </g>
</svg>
